<svg width="24" height="24" viewBox="0 0 24 24" fill="none" xmlns="http://www.w3.org/2000/svg">
<g id="pan_tool_24px">
<path id="icon/action/pan_tool_24px" fill-rule="evenodd" clip-rule="evenodd" d="M11.82 23.995H18.37C20.58 23.995 22.37 22.205 22.37 19.995V6.145C22.37 4.765 21.25 3.645 19.87 3.645C19.7 3.645 19.53 3.665 19.37 3.695V3.415C19.37 2.03501 18.25 0.915005 16.87 0.915005C16.54 0.915005 16.22 0.975005 15.93 1.095C15.48 0.435005 14.73 0.00500488 13.87 0.00500488C12.55 0.00500488 11.47 1.035 11.38 2.335C11.21 2.305 11.04 2.285 10.87 2.285C9.49 2.285 8.37 3.405 8.37 4.78501V14.335L5.96 13.055C5.23 12.665 4.32 12.775 3.7 13.325L1.63 15.155L8.93001 22.765C9.68001 23.545 10.74 23.995 11.82 23.995ZM10.37 21.375L4.51 15.275L5.02 14.825L10.37 17.655V4.785C10.37 4.515 10.59 4.285 10.87 4.285C11.15 4.285 11.37 4.505 11.37 4.785V11.995H13.37V2.505C13.37 2.225 13.59 2.005 13.87 2.005C14.15 2.005 14.37 2.225 14.37 2.505V11.995H16.37V3.415C16.37 3.135 16.59 2.915 16.87 2.915C17.15 2.915 17.37 3.135 17.37 3.415V11.995H19.37V6.145C19.37 5.865 19.59 5.64501 19.87 5.64501C20.15 5.64501 20.37 5.865 20.37 6.145V19.995C20.37 21.095 19.47 21.995 18.37 21.995H11.81C11.27 21.995 10.75 21.765 10.37 21.375Z" fill="#F2F2F2"/>
</g>
</svg>
