<svg width="60" height="60" viewBox="0 0 60 60" fill="none" xmlns="http://www.w3.org/2000/svg">
<g clip-path="url(#clip0)">
<path d="M14.2063 6H36.5122L48.3352 17.7772V45.3796C48.3352 46.83 47.1592 48.0049 45.71 48.0049H14.2063C12.7571 48.0049 11.5811 46.83 11.5811 45.3796V8.62528C11.5811 7.17485 12.7573 6 14.2063 6Z" fill="#E2574C"/>
<path d="M48.2983 17.8139H39.1477C37.6985 17.8139 36.5225 16.6378 36.5225 15.1886V6.02625L48.2983 17.8139Z" fill="#B53629"/>
<path d="M24.9682 26.5493H22.5854V32.9894H23.6434V30.7998H24.9682C25.5938 30.7998 26.109 30.5974 26.5322 30.1926C26.9462 29.7878 27.1578 29.2818 27.1578 28.6745C27.1578 28.2789 27.0566 27.9201 26.8726 27.5889C26.6794 27.2669 26.4126 27.0093 26.0814 26.8253C25.7502 26.6413 25.373 26.5493 24.9682 26.5493ZM24.913 29.797H23.6434V27.5521H24.913C25.1338 27.5521 25.3362 27.6073 25.5202 27.6993C25.695 27.8005 25.833 27.9385 25.9342 28.1041C26.0354 28.2697 26.0906 28.4629 26.0906 28.6745C26.0906 28.8401 26.0538 28.9873 25.9986 29.1254C25.9434 29.2726 25.8606 29.3922 25.7594 29.4842C25.649 29.5854 25.5294 29.659 25.3822 29.7142C25.235 29.7694 25.0786 29.797 24.913 29.797ZM30.518 26.5493H28.2456V32.9894H30.518C31.4564 32.9894 32.2384 32.6858 32.8548 32.0786C33.4712 31.4714 33.7841 30.7078 33.7841 29.7694C33.7841 28.8401 33.4712 28.0673 32.8548 27.4601C32.2384 26.8529 31.4564 26.5493 30.518 26.5493ZM30.4904 32.005H29.3036V27.5337H30.4904C30.8032 27.5337 31.1068 27.5889 31.3828 27.6993C31.6588 27.8097 31.8888 27.9661 32.082 28.1593C32.2752 28.3617 32.4224 28.5917 32.5328 28.8677C32.6432 29.1438 32.6984 29.4474 32.6984 29.7694C32.6984 30.4226 32.4868 30.9562 32.0728 31.3794C31.6588 31.8026 31.1344 32.005 30.4904 32.005ZM38.7367 27.5429V26.5493H35.0199V32.9894H36.0779V30.3306H38.4975V29.3646H36.0779V27.5429H38.7367Z" fill="white"/>
</g>
<defs>
<clipPath id="clip0">
<rect width="42.0049" height="42.0049" fill="white" transform="translate(9 6)"/>
</clipPath>
</defs>
</svg>
