<svg width="30" height="30" viewBox="0 0 30 30" fill="none" xmlns="http://www.w3.org/2000/svg">
<path d="M26.25 15C26.25 8.78906 21.2109 3.75 15 3.75C8.78906 3.75 3.75 8.78906 3.75 15C3.75 21.2109 8.78906 26.25 15 26.25C21.2109 26.25 26.25 21.2109 26.25 15Z" fill="white" stroke="#81C784" stroke-miterlimit="10"/>
<path d="M26.25 15C26.25 8.78906 21.2109 3.75 15 3.75C8.78906 3.75 3.75 8.78906 3.75 15C3.75 21.2109 8.78906 26.25 15 26.25C21.2109 26.25 26.25 21.2109 26.25 15Z" stroke="#81C784" stroke-miterlimit="10"/>
<path d="M21.3985 18.3398C20.4417 17.2066 19.7661 16.7303 19.7661 13.6055C19.7661 10.7426 18.2555 9.7248 17.0122 9.23027C16.9264 9.19449 16.8491 9.14119 16.7851 9.07379C16.7211 9.00639 16.6719 8.92638 16.6407 8.83887C16.4233 8.12109 15.8133 7.5 15.0001 7.5C14.1868 7.5 13.5756 8.12109 13.3594 8.83945C13.3284 8.92698 13.2793 9.00702 13.2154 9.07443C13.1515 9.14185 13.0743 9.19513 12.9885 9.23086C11.744 9.72656 10.2346 10.7426 10.2346 13.6061C10.2346 16.7309 9.55845 17.2072 8.60161 18.3404C8.20493 18.8092 8.56353 19.6881 9.25728 19.6881H20.7422C21.4319 19.6875 21.7934 18.8086 21.3985 18.3398Z" fill="#81C784"/>
<path d="M12.9047 20.625C12.8718 20.6248 12.8391 20.6316 12.809 20.6449C12.7788 20.6582 12.7518 20.6777 12.7297 20.7021C12.7075 20.7266 12.6908 20.7554 12.6806 20.7867C12.6704 20.8181 12.6669 20.8512 12.6704 20.884C12.8022 21.9809 13.776 22.5 15.0001 22.5C16.2112 22.5 17.1762 21.9639 17.3239 20.8875C17.3279 20.8545 17.3248 20.8209 17.3148 20.7892C17.3048 20.7574 17.2882 20.7281 17.266 20.7033C17.2439 20.6784 17.2166 20.6586 17.1862 20.6451C17.1558 20.6316 17.1228 20.6248 17.0895 20.625H12.9047Z" fill="#81C784"/>
</svg>
