<svg width="26" height="26" viewBox="0 0 26 26" fill="none" xmlns="http://www.w3.org/2000/svg">
<path opacity="0.3" d="M13 4.33301C8.21171 4.33301 4.33337 8.21134 4.33337 12.9997C4.33337 17.788 8.21171 21.6663 13 21.6663C17.7884 21.6663 21.6667 17.788 21.6667 12.9997C21.6667 8.21134 17.7884 4.33301 13 4.33301ZM14.0834 18.4163H11.9167V16.2497H14.0834V18.4163ZM14.0834 14.083H11.9167V7.58301H14.0834V14.083Z" fill="#EB5757"/>
<path d="M12.9891 2.16699C7.00913 2.16699 2.16663 7.02033 2.16663 13.0003C2.16663 18.9803 7.00913 23.8337 12.9891 23.8337C18.98 23.8337 23.8333 18.9803 23.8333 13.0003C23.8333 7.02033 18.98 2.16699 12.9891 2.16699ZM13 21.667C8.21163 21.667 4.33329 17.7887 4.33329 13.0003C4.33329 8.21199 8.21163 4.33366 13 4.33366C17.7883 4.33366 21.6666 8.21199 21.6666 13.0003C21.6666 17.7887 17.7883 21.667 13 21.667ZM11.9166 16.2503H14.0833V18.417H11.9166V16.2503ZM11.9166 7.58366H14.0833V14.0837H11.9166V7.58366Z" fill="#EB5757"/>
</svg>
