<svg width="26" height="26" viewBox="0 0 26 26" fill="none" xmlns="http://www.w3.org/2000/svg">
<path d="M13 4.33301C8.22254 4.33301 4.33337 8.22217 4.33337 12.9997C4.33337 17.7772 8.22254 21.6663 13 21.6663C17.7775 21.6663 21.6667 17.7772 21.6667 12.9997C21.6667 8.22217 17.7775 4.33301 13 4.33301ZM10.8334 18.4163L6.50004 14.083L8.02754 12.5555L10.8334 15.3505L17.9725 8.21134L19.5 9.74967L10.8334 18.4163Z" fill="white"/>
<path d="M13 2.16699C7.01996 2.16699 2.16663 7.02033 2.16663 13.0003C2.16663 18.9803 7.01996 23.8337 13 23.8337C18.98 23.8337 23.8333 18.9803 23.8333 13.0003C23.8333 7.02033 18.98 2.16699 13 2.16699ZM13 21.667C8.22246 21.667 4.33329 17.7778 4.33329 13.0003C4.33329 8.22283 8.22246 4.33366 13 4.33366C17.7775 4.33366 21.6666 8.22283 21.6666 13.0003C21.6666 17.7778 17.7775 21.667 13 21.667ZM17.9725 8.21199L10.8333 15.3512L8.02746 12.5562L6.49996 14.0837L10.8333 18.417L19.5 9.75033L17.9725 8.21199Z" fill="#81C784"/>
</svg>
