<svg width="27" height="26" viewBox="0 0 27 26" fill="none" xmlns="http://www.w3.org/2000/svg">
<path d="M13.5 0.5C6.37001 0.5 0.583344 6.1 0.583344 13C0.583344 19.9 6.37001 25.5 13.5 25.5C20.63 25.5 26.4167 19.9 26.4167 13C26.4167 6.1 20.63 0.5 13.5 0.5ZM13.5 23C7.80376 23 3.16668 18.5125 3.16668 13C3.16668 7.4875 7.80376 3 13.5 3C19.1963 3 23.8333 7.4875 23.8333 13C23.8333 18.5125 19.1963 23 13.5 23ZM19.4288 7.475L10.9167 15.7125L7.57126 12.4875L5.75001 14.25L10.9167 19.25L21.25 9.25L19.4288 7.475Z" fill="#FFE082"/>
</svg>
